<svg width="72" height="20" viewBox="0 0 72 20" fill="none" xmlns="http://www.w3.org/2000/svg">
<path d="M20.8024 18.9148L20.7295 0.448059C14.9632 0.448059 13.5763 6.57931 10.4377 11.9077C8.39397 8.55006 4.0875 -2.3256 0 0.448059V18.9148C6.35022 18.9148 4.01451 15.1922 4.01451 8.03913C11.1676 19.7907 9.63482 19.8637 16.7879 7.82015C16.7879 15.0463 14.4522 18.9148 20.8024 18.9148Z" fill="#003773"/>
<path fill-rule="evenodd" clip-rule="evenodd" d="M26.0566 19.9886C26.5676 19.9156 28.3923 20.2806 27.7354 19.1857C27.5894 18.8937 27.2975 18.7478 26.9325 18.6018C26.8595 18.1638 26.2756 17.069 26.3486 16.0471C26.3486 15.9011 26.4216 15.7551 26.4216 15.6821H26.2026C25.9836 16.631 26.4216 17.6529 26.7136 18.5288C23.9399 18.8207 23.7939 20.1346 26.0566 19.9886ZM26.1296 18.8207C25.6187 18.8937 24.8888 18.9667 24.8888 19.4777C24.8888 19.8426 25.3267 19.8426 25.6917 19.8426C26.1296 19.8426 27.6624 19.9156 27.7354 19.6236C27.8084 18.9667 26.7136 18.8207 26.2026 18.8937L26.1296 18.8207Z" fill="#003773"/>
<path fill-rule="evenodd" clip-rule="evenodd" d="M29.4116 0.921875C33.8641 0.921875 37.4407 4.49844 37.4407 8.95089C37.4407 13.4033 33.8641 16.9799 29.4116 16.9799C24.9592 16.9799 21.3826 13.4033 21.3826 8.95089C21.3826 4.49844 24.9592 0.921875 29.4116 0.921875ZM30.4335 13.1844C30.5795 13.1844 30.7255 13.1844 30.8715 13.1844L31.4554 13.1114C31.5284 13.1114 31.5284 13.0384 31.6014 13.0384C31.7474 13.0384 31.8933 12.9654 31.9663 12.8924L32.4773 12.6734C32.5503 12.6734 32.6233 12.6004 32.6233 12.6004C32.6962 12.6004 32.6233 12.6004 32.6962 12.6004L33.2072 12.2355C33.3532 12.0895 33.4991 12.0165 33.6451 11.7975C33.7181 11.7245 33.7181 11.7245 33.7181 11.6516C33.7911 11.5786 33.9371 11.2866 34.0101 11.2136C34.0831 11.1406 34.0831 10.9946 34.1561 10.9216L34.302 10.7027C34.302 10.6297 34.302 10.6297 34.302 10.6297C34.302 10.4837 34.375 10.4107 34.375 10.2647C34.375 10.1187 34.448 9.97276 34.448 9.82678C34.375 9.82678 34.375 9.75379 34.2291 9.75379C34.0101 10.4837 34.0101 10.5567 33.5721 11.1406L33.2072 11.5786L32.7692 11.9435C32.5503 12.0895 32.4773 12.1625 32.2583 12.2355C32.1123 12.3085 31.8203 12.4545 31.6744 12.4545C31.3094 12.6004 30.8715 12.6734 30.5065 12.6734C30.2145 12.6734 29.9226 12.6734 29.7036 12.6734C29.4116 12.6004 29.4846 12.6004 29.3387 12.6004C29.1927 12.6004 29.0467 12.5275 28.9737 12.5275C28.7547 12.4545 28.2438 12.2355 28.0248 12.0895C27.7329 11.9435 27.5869 11.7975 27.3679 11.5786L27.1489 11.3596C27.0029 11.1406 26.857 11.0676 26.784 10.8487C26.784 10.7757 26.711 10.7757 26.711 10.7027C26.492 10.2647 26.492 10.3377 26.419 9.89977C26.419 9.82678 26.419 9.75379 26.273 9.75379C26.127 9.75379 26.2 9.89977 26.2 10.0458C26.2 10.1187 26.273 10.3377 26.273 10.4107C26.346 10.7027 26.419 10.7757 26.492 11.0676C26.492 11.1406 26.565 11.1406 26.565 11.2136C26.638 11.4326 26.784 11.5786 26.9299 11.7245C27.0029 11.7975 27.0029 11.7975 27.0029 11.8705L27.0759 12.0165C27.0759 12.0165 27.2219 12.1625 27.2949 12.2355C27.3679 12.3085 27.2949 12.3085 27.4409 12.3085C27.5139 12.3815 27.7329 12.5275 27.8058 12.6004C27.8788 12.6004 28.0978 12.7464 28.2438 12.8194C28.3168 12.8194 28.3168 12.8924 28.3898 12.8924C28.4628 12.8924 28.4628 12.9654 28.5358 12.9654C28.6087 13.0384 28.7547 13.0384 28.9007 13.0384C29.0467 13.0384 28.9007 13.0384 29.1927 13.1114C29.2657 13.1114 29.2657 13.1114 29.2657 13.1114C29.3387 13.1114 29.4116 13.1114 29.4846 13.1114C29.6306 13.1844 29.9956 13.1844 30.1416 13.1844H30.4335ZM31.3824 6.10424C31.2364 6.17723 31.1634 6.3962 31.1634 6.54219C31.0904 6.76116 31.0904 6.98013 31.0904 7.1991C31.0904 7.41808 31.0904 7.63705 31.1634 7.78303C31.2364 7.85602 31.3094 8.22098 31.5284 8.075C31.6744 8.00201 31.7474 7.63705 31.7474 7.56406C31.8933 7.2721 31.8203 6.61518 31.6744 6.32321C31.6014 6.17723 31.5284 5.88527 31.3094 6.03125L31.3824 6.10424ZM28.9007 6.10424C28.5358 6.46919 28.5358 7.34509 28.7547 7.85602C28.9007 8.29397 29.1197 8.29397 29.3387 7.85602C29.4116 7.71004 29.4116 7.1991 29.4116 7.05312C29.4116 6.90714 29.3387 6.54219 29.3387 6.46919C29.3387 6.3962 29.1927 6.17723 29.1197 6.17723C29.0467 6.17723 28.9737 6.17723 28.9737 6.17723L28.9007 6.10424Z" fill="#003773"/>
<path fill-rule="evenodd" clip-rule="evenodd" d="M45.8421 0.921875C50.2946 0.921875 53.8711 4.49844 53.8711 8.95089C53.8711 13.4033 50.2946 16.9799 45.8421 16.9799C41.3897 16.9799 37.8131 13.4033 37.8131 8.95089C37.8131 4.49844 41.3897 0.921875 45.8421 0.921875ZM44.7473 13.1844C44.8932 13.1844 45.0392 13.1844 45.1852 13.1844L45.7691 13.1114C45.8421 13.1114 45.8421 13.0384 45.9151 13.0384C46.0611 13.0384 46.2071 12.9654 46.2801 12.8924L46.791 12.6734C46.864 12.6734 46.937 12.6004 46.937 12.6004C47.01 12.6004 46.937 12.6004 47.01 12.6004L47.5209 12.2355C47.6669 12.0895 47.8129 12.0165 47.9589 11.7975C48.0319 11.7245 48.0319 11.7245 48.0319 11.6516C48.1048 11.5786 48.2508 11.2866 48.3238 11.2136C48.3968 11.1406 48.3968 10.9946 48.4698 10.9216L48.6158 10.7027C48.6158 10.6297 48.6158 10.6297 48.6158 10.6297C48.6158 10.4837 48.6888 10.4107 48.6888 10.2647C48.6888 10.1187 48.7618 9.97276 48.7618 9.82678C48.6888 9.82678 48.6888 9.75379 48.5428 9.75379C48.3238 10.4837 48.3238 10.5567 47.8859 11.1406L47.5209 11.5786L47.083 11.9435C46.864 12.0895 46.791 12.1625 46.572 12.2355C46.4261 12.3085 46.1341 12.4545 45.9881 12.4545C45.6232 12.6004 45.1852 12.6734 44.8203 12.6734C44.5283 12.6734 44.2363 12.6734 44.0173 12.6734C43.7254 12.6004 43.7984 12.6004 43.6524 12.6004C43.5064 12.6004 43.3604 12.5275 43.2874 12.5275C43.0685 12.4545 42.5575 12.2355 42.3386 12.0895C42.0466 11.9435 41.9006 11.7975 41.6816 11.5786L41.4627 11.3596C41.3167 11.1406 41.1707 11.0676 41.0977 10.8487C41.0977 10.7757 41.0247 10.7757 41.0247 10.7027C40.8057 10.2647 40.8057 10.3377 40.7328 9.89977C40.7328 9.82678 40.7328 9.75379 40.5868 9.75379C40.4408 9.75379 40.5138 9.89977 40.5138 10.0458C40.5138 10.1187 40.5868 10.3377 40.5868 10.4107C40.6598 10.7027 40.7328 10.7757 40.8057 11.0676C40.8057 11.1406 40.8787 11.1406 40.8787 11.2136C40.9517 11.4326 41.0977 11.5786 41.2437 11.7245C41.3167 11.7975 41.3167 11.7975 41.3167 11.8705L41.3897 12.0165C41.3897 12.0165 41.5357 12.1625 41.6086 12.2355C41.6816 12.3085 41.6086 12.3085 41.7546 12.3085C41.8276 12.3815 42.0466 12.5275 42.1196 12.6004C42.1926 12.6004 42.4115 12.7464 42.5575 12.8194C42.6305 12.8194 42.6305 12.8924 42.7035 12.8924C42.7765 12.8924 42.7765 12.9654 42.8495 12.9654C42.9225 13.0384 43.0685 13.0384 43.2144 13.0384C43.3604 13.0384 43.2144 13.0384 43.5064 13.1114C43.5794 13.1114 43.5794 13.1114 43.5794 13.1114C43.6524 13.1114 43.7254 13.1114 43.7984 13.1114C43.9444 13.1844 44.3093 13.1844 44.4553 13.1844H44.7473ZM45.6961 6.10424C45.5502 6.17723 45.4772 6.3962 45.4772 6.54219C45.4042 6.76116 45.4042 6.98013 45.4042 7.1991C45.4042 7.41808 45.4042 7.63705 45.4772 7.78303C45.5502 7.85602 45.6232 8.22098 45.8421 8.075C45.9881 8.00201 46.0611 7.63705 46.0611 7.56406C46.2071 7.2721 46.1341 6.61518 45.9881 6.32321C45.9151 6.17723 45.8421 5.88527 45.6232 6.03125L45.6961 6.10424ZM43.2144 6.10424C42.8495 6.46919 42.8495 7.34509 43.0685 7.85602C43.2144 8.29397 43.4334 8.29397 43.6524 7.85602C43.7254 7.71004 43.7254 7.1991 43.7254 7.05312C43.7254 6.90714 43.6524 6.54219 43.6524 6.46919C43.6524 6.3962 43.5064 6.17723 43.4334 6.17723C43.3604 6.17723 43.2874 6.17723 43.2874 6.17723L43.2144 6.10424Z" fill="#003773"/>
<path fill-rule="evenodd" clip-rule="evenodd" d="M32.5616 19.9886C33.0725 19.9156 34.8973 20.2806 34.2404 19.1857C34.0944 18.8937 33.8024 18.7478 33.4375 18.6018C33.3645 18.1638 32.7806 17.069 32.8535 16.0471C32.8535 15.9011 32.9265 15.7551 32.9265 15.6821H32.7076C32.4886 16.631 32.9265 17.6529 33.2185 18.5288C30.4448 18.8207 30.2989 20.1346 32.5616 19.9886ZM32.6346 18.8207C32.1236 18.8937 31.3937 18.9667 31.3937 19.4777C31.3937 19.8426 31.8317 19.8426 32.1966 19.8426C32.6346 19.8426 34.1674 19.9156 34.2404 19.6236C34.3134 18.9667 33.2185 18.8207 32.7076 18.8937L32.6346 18.8207Z" fill="#003773"/>
<path fill-rule="evenodd" clip-rule="evenodd" d="M49.5585 19.7056C49.0476 19.6326 47.2228 19.9976 47.8797 18.9027C48.0257 18.6108 48.3177 18.4648 48.6826 18.3188C48.7556 17.8809 49.3396 16.786 49.2666 15.7641C49.2666 15.6181 49.1936 15.4722 49.1936 15.3992H49.4126C49.6315 16.3481 49.1936 17.3699 48.9016 18.2458C51.6753 18.5378 51.8213 19.8516 49.5585 19.7056ZM49.4855 18.5378C49.9965 18.6108 50.7264 18.6838 50.7264 19.1947C50.7264 19.5597 50.2884 19.5597 49.9235 19.5597C49.4855 19.5597 47.9527 19.6326 47.8797 19.3407C47.8068 18.6838 48.9016 18.5378 49.4126 18.6108L49.4855 18.5378Z" fill="#003773"/>
<path fill-rule="evenodd" clip-rule="evenodd" d="M43.075 19.7056C42.5641 19.6326 40.7393 19.9976 41.3962 18.9027C41.5422 18.6108 41.8342 18.4648 42.1991 18.3188C42.2721 17.8809 42.856 16.786 42.7831 15.7641C42.7831 15.6181 42.7101 15.4722 42.7101 15.3992H42.929C43.148 16.3481 42.7101 17.3699 42.4181 18.2458C45.1918 18.5378 45.3377 19.8516 43.075 19.7056ZM43.002 18.5378C43.513 18.6108 44.2429 18.6838 44.2429 19.1947C44.2429 19.5597 43.8049 19.5597 43.44 19.5597C43.002 19.5597 41.4692 19.6326 41.3962 19.3407C41.3232 18.6838 42.4181 18.5378 42.929 18.6108L43.002 18.5378Z" fill="#003773"/>
<path d="M61.0877 18.8215L51.2339 0.354736C58.971 0.354736 60.8688 8.31076 60.9418 14.9529C60.9418 8.31076 63.2775 0.354736 71.0145 0.354736L61.1607 18.8215H61.0877Z" fill="#003773"/>
</svg>
